<svg xmlns="http://www.w3.org/2000/svg" width="47" height="46" viewBox="0 0 47 46"><g><g><path fill="#ffeb3b" d="M26.521 14.535h-2.012V8.278a8.27 8.27 0 0 1 8.269-8.27 6.82 6.82 0 0 1 6.819 6.818 5.655 5.655 0 0 1-5.652 5.654 4.728 4.728 0 0 1-4.728-4.724h2.009a2.722 2.722 0 0 0 2.719 2.716 3.657 3.657 0 0 0 3.644-3.646 4.817 4.817 0 0 0-4.811-4.807 6.267 6.267 0 0 0-6.262 6.259zm-12.71 29.447h24.987v2.01H13.811zm32.773-27.551v1.004c-.02 13.67-8.963 24.988-20.418 25.031-5.907-.023-11.143-3.05-14.836-7.848a6.995 6.995 0 0 1-10.914-5.79 6.992 6.992 0 0 1 5.678-6.865 31.172 31.172 0 0 1-.344-4.528v-1.004zM10.17 32.973c-1.707-2.64-2.978-5.702-3.71-9.03a4.987 4.987 0 0 0-4.036 4.885 4.991 4.991 0 0 0 4.985 4.983 4.974 4.974 0 0 0 2.761-.838zm34.385-14.534H7.774c.042 1.171.173 2.31.348 3.432.113.72.252 1.424.415 2.115.656 2.755 1.707 5.285 3.076 7.496.379.615.783 1.208 1.21 1.77.136.177.258.367.396.54 3.368 4.157 7.933 6.663 12.947 6.663 5.014 0 9.581-2.506 12.946-6.662 3.182-3.936 5.24-9.34 5.442-15.354z"/></g></g></svg>