<svg xmlns="http://www.w3.org/2000/svg" width="47" height="42" viewBox="0 0 47 42"><g><g><path fill="#ffeb3b" d="M22.712 40.61l.372-.35-.375.344c-6.183-6.187-11.697-11.558-15.7-16.13C3.033 19.885.444 16.2.384 12.815c0-.06-.005-.146.005-.257C.43 5.956 5.775.63 12.383.617c4.803 0 8.938 2.839 10.846 6.927l.267.574.01-.017.26-.56C25.68 3.455 29.815.617 34.621.617 41.25.63 46.598 5.985 46.61 12.564c.003.089.003.175.007.255-.062 3.385-2.654 7.066-6.63 11.66-3.996 4.56-9.496 9.924-15.67 16.098-.02.02-.035.04-.046.05l-.695.755-.767-.682c-.054-.048-.088-.084-.097-.09zM2.475 12.666v.035c0 .002-.003.043-.003.112-.057 2.189 2.171 5.84 6.11 10.284C12.354 27.41 17.6 32.552 23.5 38.44c5.913-5.902 11.149-11.035 14.915-15.338 3.94-4.443 6.171-8.094 6.115-10.283 0-.06-.004-.117-.008-.209a9.907 9.907 0 0 0-9.9-9.904c-3.961 0-7.381 2.342-8.965 5.718l-.26.563-.15.315-.033.052a2.032 2.032 0 0 1-1.714.954c-.793 0-1.45-.466-1.798-1.098-.01-.02-.051-.092-.1-.21l-.266-.574c-1.577-3.379-4.99-5.72-8.95-5.72a9.911 9.911 0 0 0-9.909 9.904zm21.07-4.438l.01.03s.004.003-.01-.03z"/></g></g></svg>