<svg xmlns="http://www.w3.org/2000/svg" width="15" height="15" viewBox="0 0 15 15"><g><g><path fill="#fff" d="M10.917 10.369a5.81 5.81 0 0 1-.553.552l-.018.016-.016.013a6.25 6.25 0 0 1-4.093 1.53 6.198 6.198 0 0 1-4.415-1.829A6.198 6.198 0 0 1-.006 6.237c0-1.668.649-3.235 1.828-4.415A6.205 6.205 0 0 1 6.237-.006c1.668 0 3.237.65 4.415 1.828a6.203 6.203 0 0 1 1.83 4.415 6.183 6.183 0 0 1-1.253 3.75l-.029.036-.017.023a5.875 5.875 0 0 1-.233.283l-.015.02zm.19-4.132A4.84 4.84 0 0 0 9.68 2.793a4.837 4.837 0 0 0-3.444-1.425c-1.3 0-2.523.506-3.443 1.427A4.84 4.84 0 0 0 1.368 6.24c0 1.299.507 2.52 1.427 3.44a4.835 4.835 0 0 0 3.441 1.427A4.839 4.839 0 0 0 9.681 9.68a4.836 4.836 0 0 0 1.425-3.443zm3.899 7.3a.04.04 0 0 1-.013.029l-.713.715-.713.713a.045.045 0 0 1-.029.011c-.014 0-.025-.004-.032-.01l-2.202-2.205c-.01-.01-.014-.02-.014-.03a.04.04 0 0 1 .014-.032l.402-.403.954-.955.067-.067a.046.046 0 0 1 .064 0l2.02 2.02-.001.001.183.183c.008.006.013.016.013.03zm-3.446-1.978l-.372.373-.466-.467.079-.07.011-.009.003-.002a6.6 6.6 0 0 0 .57-.571l.012-.014.008-.008.06-.07.466.467z"/></g></g></svg>