<svg xmlns="http://www.w3.org/2000/svg" width="43" height="42" viewBox="0 0 43 42"><g><g><path fill="#ffeb3b" d="M15.238 28.74l-1.477-1.477L35.004 6.02 31.482 2.5a1.084 1.084 0 0 0-1.537 0L7.548 24.897 6.07 23.421 28.466 1.025a3.173 3.173 0 0 1 2.247-.929c.81 0 1.628.308 2.247.929l8.516 8.516a3.181 3.181 0 0 1 .001 4.49L19.078 36.43l-1.477-1.479L40 12.554h-.002c.21-.21.316-.484.318-.77a1.082 1.082 0 0 0-.316-.768l-3.518-3.519zm-1.896 8.997c.425.43.763.942.775 1.62.012.531-.293 1.074-.697 1.355-.4.293-.852.414-1.33.457l-8.47.725c-.085.005-.167.01-.247.01h-.008a2.78 2.78 0 0 1-1.97-.8 2.756 2.756 0 0 1-.8-1.977c0-.095.004-.187.012-.274H.61l.723-8.438c.043-.481.162-.932.455-1.334.278-.404.826-.71 1.356-.697.68.012 1.189.352 1.622.776zm-1.588 1.366l-8.356-8.357-.71 8.294h-.01l.005.087c.032.461.227.655.69.689.032 0 .066-.004.087-.004z"/></g></g></svg>